<?xml version="1.0" encoding="iso-8859-1"?>
<!-- Generator: Adobe Illustrator 19.0.0, SVG Export Plug-In . SVG Version: 6.00 Build 0)  -->
<svg version="1.1" id="Layer_1" xmlns="http://www.w3.org/2000/svg" xmlns:xlink="http://www.w3.org/1999/xlink" x="0px" y="0px"
	 viewBox="0 0 512 512" style="enable-background:new 0 0 512 512;" xml:space="preserve">
<polygon style="fill:#EFEFEF;" points="444.636,113.643 389.761,164.598 87.943,164.598 87.943,253.772 444.636,253.772 "/>
<polygon style="fill:#61ACD2;" points="485.793,75.425 87.943,75.425 87.943,164.598 389.761,164.598 "/>
<rect x="444.641" y="124.292" style="fill:#F5C525;" width="54.876" height="82.313"/>
<rect x="157.908" y="253.778" style="fill:#61ACD2;" width="82.313" height="54.876"/>
<rect x="12.488" y="354.268" style="fill:#F5C525;" width="54.876" height="82.313"/>
<path style="fill:#231F20;" d="M499.512,111.811h-34.551l29.33-27.236c3.763-3.494,5.003-8.936,3.126-13.715
	c-1.877-4.779-6.489-7.924-11.624-7.924H87.942c-6.897,0-12.488,5.592-12.488,12.488v89.174v89.173
	c0,6.896,5.591,12.488,12.488,12.488h57.479v42.387c0,6.896,5.591,12.488,12.488,12.488h28.669v15.636
	c0,25.454-20.709,46.161-46.161,46.161H79.851v-28.669c0-6.896-5.591-12.488-12.488-12.488H12.488
	C5.591,341.774,0,347.366,0,354.262v82.315c0,6.896,5.591,12.488,12.488,12.488h54.876c6.897,0,12.488-5.592,12.488-12.488v-28.669
	h60.566c39.225,0,71.137-31.913,71.137-71.137v-15.636h28.67c6.897,0,12.488-5.592,12.488-12.488v-42.387h191.925
	c6.897,0,12.488-5.592,12.488-12.488V219.1h42.387c6.897,0,12.488-5.592,12.488-12.488v-82.313
	C512,117.403,506.409,111.811,499.512,111.811z M54.876,424.091H24.976v-57.339h29.901V424.091z M100.429,87.912h353.562
	l-69.136,64.199H100.429V87.912z M227.735,296.16h-57.339v-29.9h57.339V296.16z M432.148,241.284H100.429v-64.197h289.33
	c3.152,0,6.188-1.191,8.498-3.337l33.891-31.469v64.333V241.284z M487.024,194.125h-29.901v-57.339h29.901V194.125z"/>
<g>
</g>
<g>
</g>
<g>
</g>
<g>
</g>
<g>
</g>
<g>
</g>
<g>
</g>
<g>
</g>
<g>
</g>
<g>
</g>
<g>
</g>
<g>
</g>
<g>
</g>
<g>
</g>
<g>
</g>
</svg>
