<?xml version="1.0" encoding="iso-8859-1"?>
<!-- Generator: Adobe Illustrator 19.0.0, SVG Export Plug-In . SVG Version: 6.00 Build 0)  -->
<svg version="1.1" id="Layer_1" xmlns="http://www.w3.org/2000/svg" xmlns:xlink="http://www.w3.org/1999/xlink" x="0px" y="0px"
	 viewBox="0 0 512.001 512.001" style="enable-background:new 0 0 512.001 512.001;" xml:space="preserve">
<g>
	<g>
		<path d="M415.261,454.559v-76.672h-22.372v76.672c0,10.434,8.459,18.893,18.893,18.893c2.977,0,5.783-0.708,8.287-1.934
			C417.023,466.587,415.261,460.78,415.261,454.559z"/>
	</g>
</g>
<g>
	<g>
		<path d="M428.685,377.887v76.672c0,10.434,8.459,18.893,18.893,18.893s18.893-8.459,18.893-18.893v-76.672H428.685z"/>
	</g>
</g>
<g>
	<g>
		<path d="M511.733,193.552c-9.386-19.296-20.387-26.253-27.06-29.587c-4.758-2.377-10.246-3.035-15.251,0.259l0.671-1.577
			c1.094-2.569-0.102-5.539-2.671-6.634c-2.57-1.096-5.54,0.102-6.634,2.671l-0.498,1.169c0.165-1.979,0.176-3.995-0.001-6.04
			c-1.683-19.584-18.925-34.095-38.509-32.411c-19.584,1.683-34.095,18.925-32.411,38.509c1.683,19.584,18.925,34.095,38.509,32.412
			c9.525-0.819,17.841-5.324,23.687-11.981l-0.679,1.596c-1.094,2.569,0.102,5.539,2.671,6.634c2.563,1.093,5.537-0.097,6.634-2.671
			l0.737-1.73c1.108,3.854,3.751,7.256,7.621,9.189c6.549,3.272,23.355-1.553,39.954,3.893c1.017,0.333,2.135,0.027,2.84-0.78
			C512.047,195.664,512.201,194.515,511.733,193.552z"/>
	</g>
</g>
<g>
	<g>
		<path d="M484.394,355.165l-4.576-20.603l-4.88,12.654c-2.329,6.042-6.574,10.946-11.847,14.126h16.348
			c1.54,0,2.995-0.699,3.959-1.9C484.36,358.241,484.727,356.668,484.394,355.165z"/>
	</g>
</g>
<g>
	<g>
		<path d="M481.103,274.547l-35.199-49.706l22.615,19.996l-0.08-19.309c-0.049-11.942-9.77-21.584-21.713-21.534l-38.561,0.159
			c-11.943,0.049-21.584,9.77-21.534,21.713l0.04,9.733l-4.08,46.883l-38.736,23.521c-6.834,4.15-9.01,13.054-4.861,19.889
			c4.151,6.833,13.052,9.011,19.889,4.86l20.596-12.506c-0.645,7.405-0.37,4.262-3.271,37.577c-0.123,1.417,0.355,2.82,1.315,3.87
			c0.96,1.049,2.319,1.652,3.741,1.652h52.503c-11.699-7.031-16.872-21.622-11.872-34.585l16.14-41.848l-16.974-44.961
			l31.876,45.013l-18.052,46.805c-2.878,7.465,0.829,15.864,8.312,18.75c7.366,2.839,15.838-0.758,18.75-8.312
			c6.276-16.272,10.906-28.278,20.851-54.06C484.546,283.615,483.909,278.511,481.103,274.547z"/>
	</g>
</g>
<g>
	<g>
		<path d="M337.971,138.78l-31.083-35.169c-2.074-2.349-5.661-2.569-8.009-0.495c-2.348,2.076-2.569,5.662-0.494,8.009
			l24.683,27.928l-47.381-15.499c-2.5-0.818-5.19,0.546-6.007,3.046l-7.278,22.251c14.421-0.83,28.684,6.627,35.853,20.244
			c9.779,18.579,2.645,41.57-15.934,51.349l-10.682,5.623l32.266,10.554c2.5,0.818,5.19-0.546,6.007-3.046l29.202-89.275
			l-0.022-0.007C339.694,142.446,339.352,140.343,337.971,138.78z"/>
	</g>
</g>
<g>
	<g>
		<circle cx="156.599" cy="83.94" r="45.391"/>
	</g>
</g>
<g>
	<g>
		<path d="M282.808,177.225c-5.289-10.05-17.725-13.911-27.777-8.62l-53.747,28.29c-8.011-3.91-62.35-30.431-71.135-34.72
			l49.129,11.065c-1.236-6.665-4.423-12.872-9.232-17.793c-6.42-6.569-15.197-10.301-24.382-10.366l-31.678-0.227
			c-9.192-0.066-18.03,3.546-24.544,10.032c-6.514,6.485-10.166,15.306-10.141,24.5l0.32,116.8c0.024,9.161,3.7,17.935,10.211,24.38
			c4.593,4.547,10.334,7.663,16.531,9.083H63.08L33.73,180.347c-1.814-9.226-10.76-15.233-19.987-13.42
			c-9.224,1.813-15.233,10.762-13.42,19.986l32.05,163.045c1.421,7.228,7.298,12.608,14.434,13.564l5.2,0.176
			c-3.946,10.234-32.279,83.696-36.216,93.906c-2.256,5.847,0.657,12.416,6.504,14.672c5.851,2.257,12.417-0.659,14.673-6.505
			c4.241-10.998,35.222-91.327,39.366-102.073h64.646c4.547,11.79,17.583,45.592,22.234,57.652l-7.132,18.025
			c-5.015,12.673,1.115,27.217,13.867,32.027c19.268,7.269,30.429-9.829,32.027-13.866l56.019-141.563
			c3.013-7.612,2.053-16.22-2.558-22.983c-4.597-6.743-12.23-10.775-20.389-10.775c-0.023,0-0.048,0-0.072,0l-56.733,0.166
			l0.448-28.429l-55.519-49.414c23.028,11.239,45.928,22.417,69.208,33.779c5.738,2.889,12.738,3.043,18.836-0.167l62.975-33.146
			C284.239,199.712,288.099,187.276,282.808,177.225z M170.506,363.527c8.326-1.109,14.753-8.223,14.753-16.853
			c0-6.44-3.577-12.041-8.851-14.934l22.291-0.066l-23.099,58.713c-2.369-6.142-9.292-24.095-10.294-26.691L170.506,363.527z"/>
	</g>
</g>
<g>
</g>
<g>
</g>
<g>
</g>
<g>
</g>
<g>
</g>
<g>
</g>
<g>
</g>
<g>
</g>
<g>
</g>
<g>
</g>
<g>
</g>
<g>
</g>
<g>
</g>
<g>
</g>
<g>
</g>
</svg>
